<svg width="30" height="30" viewBox="0 0 30 30" fill="none" xmlns="http://www.w3.org/2000/svg">
<path d="M22.5 12.1875H20.625C20.6243 11.4418 20.3277 10.7269 19.8004 10.1996C19.2731 9.6723 18.5582 9.37574 17.8125 9.375V7.5C19.0552 7.50149 20.2467 7.99583 21.1254 8.87458C22.0042 9.75334 22.4985 10.9448 22.5 12.1875Z" fill="#DE320E"/>
<path d="M26.25 12.1875H24.375C24.373 10.4476 23.681 8.77958 22.4507 7.5493C21.2204 6.31903 19.5524 5.62699 17.8125 5.625V3.75C20.0495 3.75248 22.1942 4.64223 23.776 6.22403C25.3578 7.80583 26.2475 9.9505 26.25 12.1875Z" fill="#DE320E"/>
<path d="M24.375 27.1875H24.2156C5.79372 26.1281 3.1781 10.5844 2.81247 5.84063C2.75533 5.09695 2.99593 4.36103 3.48134 3.79474C3.96676 3.22845 4.65724 2.87817 5.40091 2.82094C5.47528 2.81531 5.54997 2.8125 5.62497 2.8125H10.5656C10.9411 2.81214 11.3081 2.92454 11.619 3.13515C11.9299 3.34576 12.1704 3.64488 12.3093 3.99375L13.7343 7.5C13.8716 7.84083 13.9056 8.21445 13.8323 8.57446C13.7589 8.93447 13.5814 9.26501 13.3218 9.525L11.325 11.5406C11.6356 13.3137 12.4841 14.9484 13.7553 16.223C15.0265 17.4975 16.6589 18.3503 18.4312 18.6656L20.4656 16.65C20.7295 16.3933 21.0631 16.2199 21.4249 16.1516C21.7867 16.0832 22.1606 16.1229 22.5 16.2656L26.0343 17.6813C26.378 17.8246 26.6711 18.067 26.8765 18.3775C27.0818 18.6881 27.1901 19.0527 27.1875 19.425V24.375C27.1875 25.1209 26.8912 25.8363 26.3637 26.3637C25.8363 26.8912 25.1209 27.1875 24.375 27.1875ZM5.62497 4.6875C5.50186 4.68713 5.37988 4.71101 5.26599 4.75779C5.15211 4.80456 5.04855 4.8733 4.96123 4.9601C4.87392 5.04689 4.80455 5.15003 4.7571 5.26364C4.70964 5.37724 4.68503 5.49907 4.68466 5.62219C4.68466 5.64844 4.6856 5.67438 4.68747 5.7C5.11872 11.25 7.88435 24.375 24.3187 25.3125C24.5669 25.3274 24.8107 25.2431 24.9967 25.0782C25.1827 24.9133 25.2956 24.6812 25.3106 24.4331L25.3125 24.375V19.425L21.7781 18.0094L19.0875 20.6812L18.6375 20.625C10.4812 19.6031 9.37497 11.4469 9.37497 11.3625L9.31872 10.9125L11.9812 8.22188L10.575 4.6875H5.62497Z" fill="#DE320E"/>
</svg>
