<svg width="10" height="10" viewBox="0 0 10 10" fill="none" xmlns="http://www.w3.org/2000/svg">
<path d="M4.6575 8.15391C4.69573 8.20943 4.74688 8.25482 4.80654 8.28618C4.86621 8.31754 4.9326 8.33393 5 8.33393C5.06741 8.33393 5.1338 8.31754 5.19347 8.28618C5.25313 8.25482 5.30428 8.20943 5.3425 8.15391L9.0925 2.73725C9.13591 2.67477 9.16136 2.60159 9.1661 2.52567C9.17084 2.44974 9.15468 2.37396 9.11937 2.30658C9.08407 2.23919 9.03097 2.18277 8.96585 2.14344C8.90073 2.10411 8.82608 2.08338 8.75 2.0835H1.25C1.17411 2.08381 1.09973 2.10481 1.03487 2.14423C0.970014 2.18365 0.91713 2.24001 0.881908 2.30724C0.846685 2.37448 0.830456 2.45004 0.834966 2.5258C0.839476 2.60157 0.864555 2.67467 0.907504 2.73725L4.6575 8.15391Z" fill="white"/>
</svg>
