<svg width="9" height="6" viewBox="0 0 9 6" fill="none" xmlns="http://www.w3.org/2000/svg">
<path d="M4.50005 4.99981C4.35402 5.00009 4.21249 4.94923 4.10005 4.85606L0.35005 1.73106C0.222415 1.62497 0.14215 1.47252 0.126912 1.30726C0.111675 1.14199 0.162714 0.977441 0.2688 0.849806C0.374887 0.72217 0.527331 0.641905 0.692598 0.626668C0.857864 0.611431 1.02241 0.662469 1.15005 0.768556L4.50005 3.56856L7.85005 0.868556C7.91398 0.81664 7.98754 0.77787 8.0665 0.754475C8.14546 0.731081 8.22827 0.723522 8.31016 0.732234C8.39206 0.740946 8.47142 0.765756 8.54369 0.80524C8.61597 0.844724 8.67972 0.898102 8.7313 0.962306C8.78854 1.02657 8.83189 1.10196 8.85863 1.18376C8.88538 1.26555 8.89494 1.35199 8.88673 1.43766C8.87851 1.52332 8.8527 1.60637 8.81089 1.68159C8.76909 1.75681 8.71221 1.82259 8.6438 1.87481L4.8938 4.89356C4.77812 4.972 4.63949 5.00941 4.50005 4.99981Z" fill="#844A3E"/>
</svg>
