<svg width="30" height="27" viewBox="0 0 30 27" fill="none" xmlns="http://www.w3.org/2000/svg">
<path d="M15 7.49777C14.4482 7.50639 13.9004 7.59407 13.3734 7.75811C13.6172 8.18679 13.747 8.67081 13.7504 9.16394C13.7504 9.54685 13.675 9.92601 13.5285 10.2798C13.3819 10.6335 13.1672 10.955 12.8964 11.2257C12.6256 11.4965 12.3042 11.7113 11.9504 11.8578C11.5967 12.0043 11.2175 12.0797 10.8346 12.0797C10.3415 12.0763 9.85746 11.9465 9.42878 11.7028C9.09056 12.8758 9.12998 14.1254 9.54145 15.2748C9.95292 16.4241 10.7156 17.4148 11.7214 18.1066C12.7272 18.7984 13.9252 19.1562 15.1457 19.1293C16.3662 19.1025 17.5473 18.6922 18.5216 17.9568C19.496 17.2214 20.2143 16.198 20.5748 15.0317C20.9352 13.8653 20.9196 12.6151 20.53 11.4582C20.1405 10.3012 19.3968 9.29619 18.4043 8.58539C17.4118 7.87459 16.2208 7.49408 15 7.49777ZM29.8144 12.5692C26.9908 7.05988 21.4008 3.33234 15 3.33234C8.59934 3.33234 3.00776 7.06248 0.185684 12.5697C0.0665749 12.8053 0.0045166 13.0656 0.0045166 13.3296C0.0045166 13.5936 0.0665749 13.854 0.185684 14.0896C3.00933 19.5989 8.59934 23.3264 15 23.3264C21.4008 23.3264 26.9923 19.5963 29.8144 14.089C29.9335 13.8534 29.9956 13.5931 29.9956 13.3291C29.9956 13.0651 29.9335 12.8048 29.8144 12.5692ZM15 20.8272C9.86355 20.8272 5.15452 17.9634 2.61153 13.3294C5.15452 8.69533 9.86302 5.8316 15 5.8316C20.1371 5.8316 24.8456 8.69533 27.3886 13.3294C24.8461 17.9634 20.1371 20.8272 15 20.8272Z" fill="#BD8D82"/>
</svg>
