<svg width="33" height="33" viewBox="0 0 33 33" fill="none" xmlns="http://www.w3.org/2000/svg">
<path d="M27.8909 7.24881H13.1658C12.761 6.04643 11.6237 5.17773 10.2866 5.17773C8.94946 5.17773 7.81218 6.04643 7.40735 7.24881H5.10889C4.57496 7.24881 4.14209 7.68167 4.14209 8.2156C4.14209 8.74953 4.57496 9.1824 5.10889 9.1824H7.40741C7.81224 10.3848 8.94952 11.2535 10.2867 11.2535C11.6238 11.2535 12.7611 10.3848 13.1659 9.1824H27.8909C28.4249 9.1824 28.8577 8.74953 28.8577 8.2156C28.8577 7.68167 28.4249 7.24881 27.8909 7.24881ZM10.2866 9.31988C9.67771 9.31988 9.18232 8.82449 9.18232 8.2156C9.18232 7.60671 9.67771 7.11133 10.2866 7.11133C10.8955 7.11133 11.3909 7.60671 11.3909 8.2156C11.3909 8.82449 10.8955 9.31988 10.2866 9.31988Z" fill="#844A3E"/>
<path d="M27.8909 15.5331H25.5923C25.1875 14.3307 24.0502 13.462 22.7131 13.462C21.376 13.462 20.2387 14.3307 19.8339 15.5331H5.10889C4.57496 15.5331 4.14209 15.966 4.14209 16.4999C4.14209 17.0338 4.57496 17.4667 5.10889 17.4667H19.8339C20.2387 18.6691 21.3761 19.5378 22.7132 19.5378C24.0502 19.5378 25.1876 18.6691 25.5924 17.4667H27.8909C28.4249 17.4667 28.8577 17.0338 28.8577 16.4999C28.8577 15.966 28.4249 15.5331 27.8909 15.5331ZM22.7132 17.6042C22.1043 17.6042 21.6089 17.1088 21.6089 16.4999C21.6089 15.891 22.1043 15.3956 22.7132 15.3956C23.3221 15.3956 23.8174 15.891 23.8174 16.4999C23.8174 17.1088 23.3221 17.6042 22.7132 17.6042Z" fill="#844A3E"/>
<path d="M27.8909 23.8175H17.3081C16.9032 22.6152 15.766 21.7465 14.4288 21.7465C13.0917 21.7465 11.9544 22.6152 11.5496 23.8175H5.10889C4.57496 23.8175 4.14209 24.2504 4.14209 24.7843C4.14209 25.3183 4.57496 25.7511 5.10889 25.7511H11.5496C11.9544 26.9535 13.0917 27.8222 14.4288 27.8222C15.766 27.8222 16.9032 26.9535 17.3081 25.7511H27.8909C28.4249 25.7511 28.8577 25.3183 28.8577 24.7843C28.8577 24.2504 28.4249 23.8175 27.8909 23.8175ZM14.4288 25.8887C13.8199 25.8887 13.3245 25.3933 13.3245 24.7844C13.3245 24.1755 13.8199 23.6801 14.4288 23.6801C15.0377 23.6801 15.5331 24.1754 15.5331 24.7843C15.5331 25.3932 15.0377 25.8887 14.4288 25.8887Z" fill="#844A3E"/>
</svg>
