<svg width="25" height="25" viewBox="0 0 25 25" fill="none" xmlns="http://www.w3.org/2000/svg">
<path d="M24.0438 10.0159L23.4989 9.43896L21.5865 4.28405C21.2607 3.41332 20.4274 2.8364 19.4979 2.83105H5.83868C4.90919 2.83105 4.07585 3.41332 3.75 4.28405L1.86432 9.37486L1.07906 10.1014C0.395299 10.6836 0 11.5383 0 12.4358V19.9464C0.00534188 21.1751 1.00427 22.1687 2.23291 22.1687H3.64316C4.87179 22.1687 5.87073 21.1751 5.87607 19.9464V18.8567H19.1239V19.9464C19.1293 21.1751 20.1282 22.1687 21.3568 22.1687H22.7671C23.9957 22.1687 24.9947 21.1751 25 19.9464V12.2381C24.9947 11.3994 24.6528 10.5981 24.0438 10.0159ZM4.75427 4.64729C4.92521 4.19323 5.35791 3.89943 5.83868 3.89943H19.5032C19.984 3.89943 20.4167 4.19858 20.5876 4.64729L22.2543 9.13447H21.0096C20.7158 7.13127 18.8515 5.74772 16.8483 6.04687C15.2511 6.28191 13.9957 7.53725 13.7607 9.13447H3.08761L4.75427 4.64729ZM19.9199 9.13447H14.8397C15.1335 7.72956 16.5118 6.83212 17.9167 7.12593C18.9209 7.3396 19.7062 8.12486 19.9199 9.13447ZM4.80769 19.9464C4.80235 20.5875 4.28419 21.1003 3.64316 21.1003H2.23291C1.59188 21.1003 1.07372 20.5875 1.06838 19.9464V18.5469C1.38889 18.7552 1.8109 18.8567 2.23291 18.8567H4.80769V19.9464ZM23.9316 19.9464C23.9263 20.5875 23.4081 21.1003 22.7671 21.1003H21.3568C20.7158 21.1003 20.1976 20.5821 20.1923 19.9464V18.8567H22.7671C23.1891 18.8567 23.6111 18.7552 23.9316 18.5469V19.9464ZM22.7671 17.7883H2.23291C1.59722 17.7937 1.07372 17.2862 1.06838 16.6452V12.4358C1.06838 11.8481 1.33013 11.2873 1.77885 10.908C1.78419 10.9026 1.79487 10.892 1.80021 10.8866L2.52671 10.2029H22.7564L23.2692 10.7531C23.2746 10.7637 23.2906 10.7691 23.2959 10.7798C23.6966 11.159 23.9263 11.6879 23.9263 12.2381V16.6452H23.9316C23.9263 17.2808 23.4028 17.7937 22.7671 17.7883Z" fill="#DE320E"/>
<path d="M7.05134 12.3398H3.04493C2.75113 12.3398 2.51074 12.5802 2.51074 12.874V15.6518C2.51074 15.9456 2.75113 16.186 3.04493 16.186H7.05134C7.34514 16.186 7.58553 15.9456 7.58553 15.6518V12.874C7.58553 12.5802 7.34514 12.3398 7.05134 12.3398ZM6.51715 15.1176H3.57912V13.4082H6.51715V15.1176Z" fill="#DE320E"/>
<path d="M21.9552 12.3398H17.9487C17.6549 12.3398 17.4146 12.5802 17.4146 12.874V15.6518C17.4146 15.9456 17.6549 16.186 17.9487 16.186H21.9552C22.249 16.186 22.4893 15.9456 22.4893 15.6518V12.874C22.4893 12.5802 22.249 12.3398 21.9552 12.3398ZM21.421 15.1176H18.4829V13.4082H21.421V15.1176Z" fill="#DE320E"/>
<path d="M15.0802 14.583H9.91993C9.62613 14.583 9.38574 14.8234 9.38574 15.1172C9.38574 15.411 9.62613 15.6514 9.91993 15.6514H15.0802C15.374 15.6514 15.6144 15.411 15.6144 15.1172C15.6144 14.8234 15.374 14.583 15.0802 14.583Z" fill="#DE320E"/>
<path d="M15.0802 12.9277H9.91993C9.62613 12.9277 9.38574 13.1681 9.38574 13.4619C9.38574 13.7557 9.62613 13.9961 9.91993 13.9961H15.0802C15.374 13.9961 15.6144 13.7557 15.6144 13.4619C15.6144 13.1681 15.374 12.9277 15.0802 12.9277Z" fill="#DE320E"/>
</svg>
