<svg width="25" height="25" viewBox="0 0 25 25" fill="none" xmlns="http://www.w3.org/2000/svg">
<g clip-path="url(#clip0_12_3720)">
<path d="M0.416757 25.0483H20.4167C20.6469 25.0483 20.8334 24.8618 20.8334 24.6318V20.8817H23.75C23.9802 20.8817 24.1667 20.6952 24.1667 20.4652V16.2984C24.1667 16.0683 23.9802 15.8818 23.75 15.8818H20.8334V12.1317C20.8334 11.9015 20.6469 11.715 20.4167 11.715H19.652C19.7108 11.4426 19.6486 11.158 19.4817 10.9349L17.599 8.42519L18.4683 7.77307C18.8546 7.48391 19.0703 7.02043 19.043 6.53863L19.0012 5.78828C18.9898 5.58476 19.081 5.38907 19.244 5.26681L20.1132 4.61487L20.4791 5.10239C20.5452 5.1907 20.6439 5.24926 20.7533 5.2649C20.7728 5.26757 20.7924 5.26909 20.8123 5.2689C20.9025 5.26909 20.9902 5.23972 21.0623 5.18555L24.5001 2.60662C25.0521 2.19253 25.1641 1.40918 24.75 0.857006L24.5185 0.548015C24.1038 -0.00340097 23.3208 -0.114981 22.7685 0.298533L19.331 2.87727C19.147 3.01537 19.1096 3.27667 19.2477 3.46073L19.6133 3.94825L18.7441 4.60038C18.3579 4.88953 18.142 5.35283 18.1694 5.83462L18.211 6.58498C18.2227 6.78849 18.1315 6.98438 17.9684 7.10645L17.0992 7.75857L15.2163 5.24888C15.0193 4.98204 14.6992 4.83498 14.3683 4.8592C14.0526 4.88209 13.7705 5.0652 13.6208 5.34424L10.1971 11.715H0.416757C0.186539 11.715 0 11.9015 0 12.1317V16.2984C0 16.5286 0.186539 16.7151 0.416757 16.7151H3.33329V20.0484H0.416757C0.186539 20.0484 0 20.2349 0 20.4652V24.6318C0 24.8618 0.186539 25.0483 0.416757 25.0483ZM23.2686 0.964962C23.4524 0.82687 23.7135 0.864063 23.8518 1.04812L24.0834 1.35711C24.2213 1.54117 24.1839 1.8021 24 1.94019L20.8954 4.26926L20.164 3.29384L23.2686 0.964962ZM7.50009 20.8817H13.3334V24.215H7.50009V20.8817ZM10.8334 16.7151H16.6666V20.0484H10.8334V16.7151ZM20.0001 24.215H14.1667V20.8817H20.0001V24.215ZM23.3334 20.0484H17.5V16.7151H23.3334V20.0484ZM20.0001 15.8818H14.1667V13.4555L18.4315 12.5483H20.0001V15.8818ZM14.3551 5.73907C14.3692 5.70988 14.3986 5.69119 14.431 5.69024L14.4392 5.68986C14.4835 5.69062 14.5245 5.71255 14.5497 5.74879L16.4322 8.25849L14.7133 9.54805C14.5293 9.68614 14.4919 9.94726 14.63 10.1315C14.7681 10.3156 15.0292 10.3528 15.2134 10.2149L16.9323 8.9253L18.8151 11.435C18.845 11.4716 18.8538 11.521 18.838 11.5655C18.8281 11.5964 18.8019 11.6191 18.7699 11.6248L10.5036 13.3826C10.4523 13.3906 10.4008 13.3687 10.3712 13.3259C10.338 13.2859 10.3314 13.2302 10.3541 13.1833L14.3551 5.73907ZM9.7048 13.8261C9.92682 14.1314 10.3079 14.277 10.677 14.1976L13.3334 13.6326V15.8818H7.50009V12.5483H9.74905L9.61993 12.7886C9.4414 13.1211 9.47478 13.5272 9.7048 13.8261ZM0.833323 14.2152C0.833323 14.5549 0.833323 14.0563 0.833323 13.8261C0.833323 13.596 0.833323 13.6326 0.833323 13.1833V12.9648V12.5483H6.66677V15.8818H0.833323V14.2152ZM4.16661 16.7151H10.0001V20.0484H4.16661V16.7151ZM0.833323 20.8817H6.66677V24.215H0.833323V20.8817Z" fill="#DE320E"/>
</g>
<defs>
<clipPath id="clip0_12_3720">
<rect width="25" height="25" fill="white"/>
</clipPath>
</defs>
</svg>
