<svg width="25" height="25" viewBox="0 0 25 25" fill="none" xmlns="http://www.w3.org/2000/svg">
<g clip-path="url(#clip0_12_3693)">
<path d="M12.5535 2.49976C12.3234 2.49976 12.1369 2.68633 12.1369 2.91643V4.28303L9.94729 5.01262L5.80333 5.84149C5.75308 5.85146 5.70486 5.87059 5.66132 5.89805L1.07791 8.81477C0.883608 8.93827 0.826437 9.19604 0.949934 9.39034L3.86665 13.9738C3.93298 14.0773 4.04142 14.1463 4.16329 14.1624C4.28536 14.1784 4.40804 14.14 4.49878 14.057L5.47007 13.1766V24.5835C5.47007 24.8136 5.65664 25.0001 5.88675 25.0001H19.2203C19.4504 25.0001 19.637 24.8136 19.637 24.5835V13.2657L20.6233 14.0724C20.7127 14.1467 20.8292 14.1794 20.9442 14.1624C21.0589 14.1469 21.1621 14.0838 21.2282 13.9886L24.1449 9.82187C24.2753 9.63591 24.2324 9.37976 24.0487 9.24609L19.4653 5.9127C19.4167 5.8773 19.3609 5.85309 19.3021 5.84149L15.1598 5.01262L12.9702 4.28303V3.2739C13.8068 3.0558 14.337 2.23364 14.1903 1.38158C14.0436 0.529714 13.2691 -0.0680337 12.4079 0.00622705C11.5464 0.0804878 10.8856 0.801936 10.8868 1.66641C10.8868 1.89652 11.0734 2.08309 11.3035 2.08309C11.5336 2.08309 11.7202 1.89652 11.7202 1.66641C11.7202 1.2062 12.0933 0.833064 12.5535 0.833064C13.0137 0.833064 13.3869 1.2062 13.3869 1.66641C13.3869 2.12662 13.0137 2.49976 12.5535 2.49976ZM12.5535 5.02218L14.6078 5.70803C14.4672 6.73486 13.5899 7.50025 12.5535 7.50025C11.5171 7.50025 10.64 6.73486 10.4993 5.70803L12.5535 5.02218ZM23.228 9.67945L20.8036 13.1433L19.4846 12.0637C19.3599 11.9614 19.1874 11.9402 19.0417 12.0094C18.8962 12.0784 18.8034 12.2253 18.8036 12.3866V24.1668H6.30342V12.2344C6.30342 12.0694 6.20617 11.9201 6.05541 11.8534C5.90445 11.7866 5.72846 11.8151 5.60639 11.9262L4.30591 13.1087L1.8783 9.29451L6.04504 6.6431L9.67852 5.91636C9.92104 7.31409 11.1338 8.33462 12.5523 8.33462C13.9708 8.33462 15.1836 7.31409 15.4261 5.91636L19.0478 6.64107L23.228 9.67945Z" fill="#DE320E"/>
</g>
<defs>
<clipPath id="clip0_12_3693">
<rect width="25" height="25" fill="white"/>
</clipPath>
</defs>
</svg>
