<svg width="25" height="25" viewBox="0 0 25 25" fill="none" xmlns="http://www.w3.org/2000/svg">
<g clip-path="url(#clip0_12_3716)">
<path d="M23.7503 14.5838H22.5003V10.4173C22.4989 9.26719 21.567 8.33529 20.417 8.33396H13.7506C12.6005 8.33529 11.6686 9.26719 11.6673 10.4173V14.5838H10.4172C9.72738 14.5845 9.16816 15.1437 9.1674 15.8338V20.0003C9.17064 21.0968 10.0243 22.0023 11.1187 22.0702L10.5197 24.1667H6.62536C6.42605 23.1976 5.57369 22.5015 4.58419 22.5001H3.75089V3.31741C3.75147 2.01416 4.75889 0.932922 6.0589 0.84061C7.35891 0.748297 8.50919 1.67619 8.69401 2.96628L8.70125 3.01682C8.16359 3.23826 7.85137 3.80282 7.94978 4.37577L8.06346 5.04847L6.94941 6.96166C6.79969 7.21896 6.79855 7.53652 6.94617 7.79496C7.09399 8.0534 7.36844 8.21342 7.66617 8.21475C7.71385 8.21475 7.76154 8.21075 7.80845 8.20274L11.8057 7.52717C12.1245 7.4732 12.3833 7.23975 12.4699 6.92829C12.5563 6.61683 12.4548 6.28343 12.2093 6.07306L10.5284 4.6321L10.4148 3.9594C10.3341 3.4904 9.99344 3.10818 9.53684 2.9741L9.51891 2.84841C9.27268 1.12499 7.73617 -0.114941 5.99977 0.00846065C4.26338 0.131862 2.9176 1.57663 2.9176 3.31741V22.5001H2.08431V22.0836C2.08431 21.8534 1.89777 21.6668 1.66756 21.6668C1.43754 21.6668 1.25101 21.8534 1.25101 22.0836V22.6768C0.492866 23.008 0.00250239 23.7561 0.000976562 24.5835C0.000976562 24.8135 0.187509 25 0.417719 25H24.5836C24.8136 25 25.0002 24.8135 25.0002 24.5835C25.0002 24.3533 24.8136 24.1667 24.5836 24.1667H23.6479L23.0488 22.0702C24.1432 22.0023 24.9969 21.0968 25.0002 20.0003V15.8338C24.9994 15.1437 24.4402 14.5845 23.7503 14.5838ZM11.6669 6.70552L7.6696 7.38127L8.76133 5.5064L10.02 5.29374L11.6699 6.70475L11.6669 6.70552ZM9.66272 4.50889L8.84106 4.64774L8.77144 4.23691C8.73349 4.01014 8.88607 3.79538 9.11285 3.75666C9.13593 3.75285 9.15919 3.75094 9.18265 3.75094C9.38578 3.75132 9.55915 3.8978 9.59348 4.09806L9.66272 4.50889ZM13.7506 9.16725H20.417C21.107 9.16801 21.6662 9.72723 21.667 10.4173V14.6606C21.169 14.8359 20.8352 15.3057 20.8337 15.8338V16.6778C20.4751 16.4022 20.0359 16.2519 19.5837 16.2503H18.0897L19.045 15.295C19.2028 15.1315 19.2007 14.8716 19.0399 14.711C18.8791 14.5502 18.6193 14.5479 18.4559 14.7058L17.5005 15.6612V13.7505C17.5005 13.5203 17.3138 13.3337 17.0838 13.3337C16.8538 13.3337 16.667 13.5203 16.667 13.7505V15.6612L15.7117 14.7058C15.5482 14.5479 15.2885 14.5502 15.1277 14.711C14.9669 14.8716 14.9648 15.1315 15.1225 15.295L16.0779 16.2503H14.5839C14.1317 16.2519 13.6924 16.4022 13.3339 16.6778V15.8338C13.3323 15.3057 12.9986 14.8359 12.5006 14.6606V10.4173C12.5013 9.72723 13.0605 9.16801 13.7506 9.16725ZM19.5837 17.0836C20.2737 17.0844 20.8329 17.6436 20.8337 18.3337V18.7502H13.3339V18.3337C13.3346 17.6436 13.8938 17.0844 14.5839 17.0836H19.5837ZM20.1753 22.0836L21.3658 24.1667H12.8019L13.9923 22.0836H20.1753ZM20.8337 21.2501H13.3339V19.5835H20.8337V21.2501ZM10.0007 20.0003V15.8338C10.0009 15.6038 10.1874 15.4174 10.4172 15.417H12.084C12.3138 15.4174 12.5004 15.6038 12.5006 15.8338V21.2501H11.2507C10.5607 21.2493 10.0015 20.6903 10.0007 20.0003ZM0.905793 24.1667C1.08279 23.6678 1.55465 23.334 2.08431 23.3334H4.58419C5.11365 23.334 5.5857 23.6678 5.7627 24.1667H0.905793ZM11.3863 24.1667L11.9816 22.0836H13.0327L11.8424 24.1667H11.3863ZM22.3252 24.1667L21.1349 22.0836H22.186L22.7812 24.1667H22.3252ZM24.1669 20.0003C24.1661 20.6903 23.6069 21.2493 22.9168 21.2501H21.667V15.8338C21.6672 15.6038 21.8537 15.4174 22.0835 15.417H23.7503C23.9801 15.4174 24.1665 15.6038 24.1669 15.8338V20.0003Z" fill="#DE320E"/>
</g>
<defs>
<clipPath id="clip0_12_3716">
<rect width="25" height="25" fill="white"/>
</clipPath>
</defs>
</svg>
