<svg width="25" height="25" viewBox="0 0 25 25" fill="none" xmlns="http://www.w3.org/2000/svg">
<g clip-path="url(#clip0_12_3682)">
<path d="M25 13.0322C25 12.9873 24.9912 12.9429 24.974 12.9014C24.9569 12.8599 24.9317 12.8222 24.8999 12.7905C24.8682 12.7587 24.8305 12.7336 24.789 12.7164C24.7476 12.6992 24.7031 12.6904 24.6582 12.6904H22.1008V5.8248L23.9623 5.3078C24.0343 5.28776 24.0977 5.2447 24.143 5.1852C24.1882 5.1257 24.2127 5.05304 24.2127 4.97831V3.49218C24.2127 3.40153 24.1767 3.31459 24.1126 3.25049C24.0485 3.18639 23.9615 3.15038 23.8709 3.15038H18.0848C18.0399 3.15036 17.9954 3.15918 17.9539 3.17635C17.9125 3.19351 17.8748 3.21869 17.843 3.25043C17.8113 3.28218 17.7861 3.31987 17.7689 3.36135C17.7518 3.40283 17.7429 3.44729 17.743 3.49218V4.97831C17.743 5.05301 17.7675 5.12566 17.8126 5.18515C17.8578 5.24464 17.9212 5.28772 17.9932 5.3078L19.8547 5.8248V12.6904H17.5875C17.8962 12.2461 18.0616 11.718 18.0613 11.1769V9.91757C18.0613 9.82693 18.0252 9.74003 17.9612 9.67594C17.8971 9.61185 17.8102 9.57582 17.7195 9.57577H16.4604C15.7534 9.57655 15.0756 9.85775 14.5757 10.3577C14.0758 10.8576 13.7947 11.5354 13.7939 12.2424V13.359L12.8418 14.3119V9.78476L14.0883 8.53827C14.8106 7.81431 15.2162 6.8334 15.2162 5.81073C15.2162 4.78806 14.8106 3.80715 14.0883 3.08319L12.7416 1.73788C12.7099 1.70612 12.6722 1.68093 12.6308 1.66373C12.5893 1.64654 12.5449 1.6377 12.5 1.6377C12.4551 1.6377 12.4107 1.64654 12.3692 1.66373C12.3278 1.68093 12.2901 1.70612 12.2584 1.73788L10.9117 3.08358C10.1894 3.80754 9.78375 4.78845 9.78375 5.81112C9.78375 6.83379 10.1894 7.8147 10.9117 8.53866L12.1582 9.78476V14.3119L11.2061 13.359V12.2424C11.2053 11.5354 10.9242 10.8576 10.4243 10.3577C9.92441 9.85775 9.24662 9.57655 8.53965 9.57577H7.28047C7.18983 9.57582 7.10293 9.61185 7.03884 9.67594C6.97475 9.74003 6.93872 9.82693 6.93867 9.91757V11.1769C6.9395 11.8838 7.2207 12.5616 7.72057 13.0614C8.22044 13.5612 8.89818 13.8424 9.60508 13.8432H10.7227L12.1582 15.2785V16.9644H10.5342C9.90183 16.9647 9.27606 17.0928 8.69454 17.3412C8.11302 17.5896 7.58776 17.9531 7.15039 18.4098H5.65156C5.12563 18.4076 4.61145 18.5652 4.17702 18.8617C3.74258 19.1581 3.40836 19.5794 3.21855 20.0699L3.08711 20.4066H2.6123C1.91945 20.4074 1.25521 20.6831 0.765431 21.1732C0.275652 21.6632 0.000361833 22.3276 5.58726e-08 23.0205C-2.56191e-05 23.0654 0.00879769 23.1098 0.0259655 23.1513C0.0431333 23.1928 0.0683089 23.2305 0.100053 23.2622C0.131797 23.294 0.169486 23.3192 0.210967 23.3363C0.252447 23.3535 0.296904 23.3623 0.341797 23.3623H24.6582C24.7031 23.3623 24.7476 23.3535 24.789 23.3363C24.8305 23.3192 24.8682 23.294 24.8999 23.2622C24.9317 23.2305 24.9569 23.1928 24.974 23.1513C24.9912 23.1098 25 23.0654 25 23.0205C24.999 22.4435 24.8071 21.8831 24.4542 21.4265C24.1014 20.97 23.6075 20.643 23.0494 20.4965C24.3018 19.1523 24.9987 17.3837 25 15.5465V13.0322ZM18.4266 3.83398H23.5291V4.71855L21.7127 5.22304H20.2432L18.4268 4.71855L18.4266 3.83398ZM20.5383 5.90663H21.4172V12.6904H20.5383V5.90663ZM14.4775 12.2424C14.4782 11.7167 14.6873 11.2127 15.059 10.8409C15.4307 10.4692 15.9346 10.26 16.4604 10.2594H17.3783V11.1773C17.3776 11.703 17.1684 12.207 16.7965 12.5786C16.4247 12.9502 15.9206 13.1591 15.3949 13.1596H14.9609L16.0418 12.0787C16.1059 12.0146 16.1419 11.9277 16.1419 11.837C16.1419 11.7463 16.1059 11.6594 16.0418 11.5953C15.9777 11.5312 15.8908 11.4952 15.8001 11.4952C15.7094 11.4952 15.6225 11.5312 15.5584 11.5953L14.4775 12.6754V12.2424ZM11.3951 8.05526C10.8008 7.45963 10.467 6.65256 10.467 5.81112C10.467 4.96969 10.8008 4.16261 11.3951 3.56698L12.5 2.46191L13.6049 3.56698C14.1992 4.16261 14.533 4.96969 14.533 5.81112C14.533 6.65256 14.1992 7.45963 13.6049 8.05526L12.8418 8.81835V6.9123C12.8418 6.82165 12.8058 6.73471 12.7417 6.67061C12.6776 6.60651 12.5907 6.5705 12.5 6.5705C12.4093 6.5705 12.3224 6.60651 12.2583 6.67061C12.1942 6.73471 12.1582 6.82165 12.1582 6.9123V8.81835L11.3951 8.05526ZM9.60508 13.1596C9.07941 13.159 8.57544 12.9499 8.20372 12.5782C7.83199 12.2066 7.62289 11.7026 7.62227 11.1769V10.259H8.54023C9.0659 10.2598 9.56979 10.4691 9.94138 10.8409C10.313 11.2127 10.5219 11.7167 10.5225 12.2424V12.6754L9.4416 11.5953C9.3775 11.5312 9.29056 11.4952 9.1999 11.4952C9.10925 11.4952 9.02231 11.5312 8.9582 11.5953C8.8941 11.6594 8.85809 11.7463 8.85809 11.837C8.85809 11.9277 8.8941 12.0146 8.9582 12.0787L10.0391 13.1596H9.60508ZM12.8418 15.2785L14.2773 13.8432H15.3949C15.9559 13.8431 16.5023 13.6648 16.9555 13.3342V15.5465C16.9574 16.3775 17.1013 17.2021 17.3811 17.9846C16.5525 17.325 15.5249 16.9654 14.4658 16.9644H12.8418V15.2785ZM24.2871 22.6787H0.713867C0.794592 22.2338 1.02879 21.8314 1.37568 21.5414C1.72257 21.2515 2.16018 21.0923 2.6123 21.0918H3.32031C3.38907 21.0918 3.45623 21.0711 3.51302 21.0323C3.56982 20.9936 3.61361 20.9386 3.63867 20.8746L3.85527 20.3205C3.99523 19.9581 4.24201 19.6467 4.5629 19.4277C4.88379 19.2087 5.26365 19.0924 5.65215 19.0941H7.30039C7.34833 19.094 7.39571 19.0838 7.43946 19.0642C7.4832 19.0446 7.52233 19.016 7.5543 18.9803C7.92957 18.5614 8.38889 18.2262 8.90232 17.9967C9.41575 17.7672 9.97178 17.6484 10.5342 17.648H14.4658C15.0282 17.6484 15.5842 17.7672 16.0976 17.9967C16.611 18.2263 17.0703 18.5614 17.4455 18.9803C17.4775 19.016 17.5166 19.0446 17.5603 19.0642C17.6041 19.0838 17.6515 19.094 17.6994 19.0941H19.3475C19.7359 19.0924 20.1158 19.2088 20.4367 19.4278C20.7575 19.6468 21.0043 19.9581 21.1443 20.3205L21.3609 20.8746C21.386 20.9386 21.4298 20.9936 21.4866 21.0323C21.5434 21.0711 21.6105 21.0918 21.6793 21.0918H22.3873C22.8395 21.0922 23.2772 21.2513 23.6242 21.5413C23.9711 21.8313 24.2054 22.2338 24.2861 22.6787H24.2871ZM24.3164 15.5465C24.3158 16.4614 24.1246 17.3662 23.7551 18.2032C23.3855 19.0403 22.8457 19.7911 22.1699 20.408H21.9129L21.7812 20.0713C21.5914 19.5808 21.2572 19.1595 20.8228 18.863C20.3884 18.5666 19.8742 18.409 19.3482 18.4111H18.2955C17.8647 17.5175 17.6404 16.5385 17.6391 15.5465V13.374H24.3164V15.5465Z" fill="#DE320E"/>
<path d="M22.0334 18.7653C22.1093 18.8149 22.2018 18.8323 22.2905 18.8137C22.3793 18.7951 22.457 18.7421 22.5067 18.6663C22.9182 18.0397 23.2014 17.3378 23.3401 16.6011C23.3492 16.5566 23.3494 16.5108 23.3407 16.4663C23.3319 16.4218 23.3144 16.3795 23.2891 16.3418C23.2639 16.3041 23.2314 16.2719 23.1935 16.2469C23.1556 16.2219 23.1132 16.2047 23.0686 16.1963C23.024 16.1879 22.9782 16.1885 22.9338 16.198C22.8895 16.2075 22.8474 16.2257 22.8102 16.2516C22.7729 16.2775 22.7412 16.3105 22.7169 16.3488C22.6925 16.3871 22.6761 16.4298 22.6684 16.4745C22.5467 17.1231 22.2976 17.7411 21.9356 18.2929C21.8861 18.3686 21.8687 18.4608 21.887 18.5493C21.9053 18.6378 21.958 18.7155 22.0334 18.7653Z" fill="#DE320E"/>
</g>
<defs>
<clipPath id="clip0_12_3682">
<rect width="25" height="25" fill="white"/>
</clipPath>
</defs>
</svg>
