<svg width="25" height="25" viewBox="0 0 25 25" fill="none" xmlns="http://www.w3.org/2000/svg">
<path d="M16.3126 6.44559C16.6617 6.44559 16.9446 6.16265 16.9446 5.81362C16.9446 5.46459 16.6617 5.18164 16.3126 5.18164C15.9636 5.18164 15.6807 5.46459 15.6807 5.81362C15.6807 6.16265 15.9636 6.44559 16.3126 6.44559Z" fill="#DE320E"/>
<path d="M8.68715 6.44559C9.03618 6.44559 9.31913 6.16265 9.31913 5.81362C9.31913 5.46459 9.03618 5.18164 8.68715 5.18164C8.33812 5.18164 8.05518 5.46459 8.05518 5.81362C8.05518 6.16265 8.33812 6.44559 8.68715 6.44559Z" fill="#DE320E"/>
<path d="M22.4931 17.9275C22.8916 17.5451 23.1182 17.0349 23.1674 16.4038C23.3027 14.6668 22.418 13.1545 20.609 12.0303C19.6076 11.408 18.5955 11.0719 18.1413 10.9402C18.9226 9.96266 19.3818 8.77389 19.3818 7.49286C19.3818 6.76387 19.2339 5.99142 18.9603 5.22876C20.0006 4.97209 20.7748 4.03139 20.7748 2.91342C20.7748 1.59834 19.7049 0.528475 18.3898 0.528475C17.6011 0.528475 16.869 0.925562 16.4297 1.55635C15.2442 0.54496 13.8837 0 12.4998 0C11.1159 0 9.75537 0.54496 8.56984 1.55646C8.13054 0.925616 7.39847 0.528475 6.6097 0.528475C5.29462 0.528475 4.22475 1.59834 4.22475 2.91342C4.22475 4.0315 4.99893 4.9722 6.03939 5.22882C5.76575 5.99148 5.61799 6.76387 5.61799 7.49286C5.61799 8.77632 6.07885 9.96715 6.86281 10.9457C6.39962 11.0812 5.40142 11.4168 4.41414 12.0303C2.60517 13.1545 1.72047 14.6668 1.8558 16.4038C1.9045 17.0284 2.12663 17.5349 2.51761 17.916C1.89201 18.5453 1.60708 19.4428 1.84878 20.3067L2.66457 23.2222C2.96675 24.302 3.99954 24.9999 5.14659 24.9999C5.40212 24.9999 5.66333 24.9653 5.92341 24.8926C5.92395 24.8924 5.92444 24.8922 5.92498 24.8921V24.8921L10.2203 23.6714C10.9562 23.8621 11.7224 23.9597 12.4998 23.9597C13.2783 23.9597 14.0454 23.861 14.7791 23.6713L19.0749 24.8922V24.8921C19.0754 24.8923 19.0759 24.8924 19.0764 24.8926C19.3366 24.9654 19.5977 25 19.8533 25C21.0002 25 22.0331 24.302 22.3353 23.2222L23.1511 20.3067C23.3913 19.448 23.1109 18.5562 22.4931 17.9275ZM22.3591 16.3408C22.3219 16.8172 22.1481 17.1753 21.8304 17.4298C21.645 17.3294 21.4451 17.2472 21.2323 17.1876C20.9984 17.1222 20.761 17.0873 20.5255 17.081C20.5266 17.0337 20.5273 16.9862 20.5273 16.9385C20.5273 15.3579 19.926 13.5976 18.9035 12.071C20.3418 12.6692 22.5431 13.978 22.3591 16.3408ZM18.3898 1.33919C19.2578 1.33919 19.964 2.04537 19.964 2.91342C19.964 3.69468 19.3913 4.34487 18.6436 4.46686C18.319 3.78245 17.8953 3.12102 17.3887 2.52293C17.2713 2.38425 17.1509 2.25129 17.0285 2.12331C17.3067 1.64618 17.8262 1.33919 18.3898 1.33919ZM5.03541 2.91342C5.03541 2.04537 5.74159 1.33919 6.60965 1.33919C7.17325 1.33919 7.69276 1.64623 7.97094 2.12347C7.84852 2.2514 7.72827 2.3843 7.61088 2.52293C7.10434 3.12102 6.68067 3.78245 6.356 4.46686C5.6082 4.34498 5.03541 3.69479 5.03541 2.91342ZM8.22956 3.04692C9.45087 1.60488 10.9674 0.810711 12.4998 0.810711C14.0322 0.810711 15.5488 1.60488 16.7701 3.04692C17.8978 4.37838 18.571 6.04039 18.571 7.49286C18.571 10.2518 16.0646 12.5169 12.9052 12.6968V7.95486C13.718 7.85573 14.2738 7.45876 14.2738 6.93833C14.2738 6.33527 13.5277 5.89754 12.4998 5.89754C11.4719 5.89754 10.7258 6.33527 10.7258 6.93833C10.7258 7.45876 11.2816 7.85573 12.0945 7.95486V12.6968C8.93515 12.5169 6.42864 10.2518 6.42864 7.49286C6.42864 6.04039 7.10186 4.37838 8.22956 3.04692ZM12.4998 7.16841C11.9975 7.16841 11.6726 7.02757 11.564 6.93833C11.6726 6.8491 11.9975 6.70825 12.4998 6.70825C13.0022 6.70825 13.3271 6.8491 13.4357 6.93833C13.3271 7.02757 13.0022 7.16841 12.4998 7.16841ZM4.82571 12.7291C5.2589 12.4584 5.69976 12.2453 6.08798 12.0828C5.07032 13.6068 4.47213 15.362 4.47213 16.9385C4.47213 16.9861 4.47283 17.0336 4.47391 17.081C4.23848 17.0873 4.00121 17.1222 3.76735 17.1876C3.55992 17.2457 3.36491 17.3254 3.18342 17.4223C2.87162 17.1683 2.70072 16.8126 2.66392 16.3409C2.55253 14.9104 3.27984 13.6952 4.82571 12.7291ZM5.70484 24.1118C4.70799 24.3908 3.69417 23.8937 3.44517 23.0037L2.62938 20.0882C2.38039 19.1983 2.98885 18.2473 3.98581 17.9683C4.47548 17.8313 4.98239 17.8753 5.41304 18.0921C5.8311 18.3026 6.12674 18.6522 6.24542 19.0764L7.06121 21.9919C7.17996 22.4162 7.10867 22.8684 6.86054 23.2653C6.605 23.6742 6.19451 23.9748 5.70484 24.1118ZM7.90862 22.7001C8.21977 22.8905 8.54482 23.0599 8.88213 23.2088L7.62288 23.5667C7.77459 23.2907 7.8702 22.9979 7.90862 22.7001ZM10.3353 22.8643C10.3315 22.8632 10.3277 22.8623 10.3238 22.8613C9.39649 22.6095 8.55119 22.2039 7.80918 21.6562L7.02619 18.858C6.84529 18.2115 6.40189 17.6823 5.77764 17.368C5.62064 17.2889 5.45676 17.2263 5.28851 17.1796C5.28495 17.0999 5.28289 17.0195 5.28289 16.9385C5.28289 15.1854 6.11295 13.1742 7.46933 11.6007C8.72636 12.7804 10.5163 13.5194 12.4998 13.5194C14.4833 13.5194 16.2732 12.7805 17.5302 11.6008C18.8866 13.1743 19.7166 15.1854 19.7166 16.9385C19.7166 17.0199 19.7145 17.1003 19.711 17.1796C19.5428 17.2263 19.379 17.289 19.222 17.368C18.5978 17.6823 18.1544 18.2115 17.9735 18.858L17.1905 21.6565C15.8851 22.6198 14.2252 23.149 12.4998 23.149C11.7598 23.149 11.0315 23.0532 10.3353 22.8643ZM17.0909 22.6991C17.1293 22.9973 17.2249 23.2904 17.3768 23.5668L16.1153 23.2083C16.4529 23.0594 16.779 22.8894 17.0909 22.6991ZM22.3702 20.0882L21.5545 23.0037C21.3054 23.8937 20.2917 24.3908 19.2948 24.1118C18.8051 23.9748 18.3947 23.6742 18.139 23.2653C17.891 22.8684 17.8197 22.4162 17.9384 21.9919L18.7542 19.0764C18.8729 18.6521 19.1685 18.3026 19.5866 18.0921C20.0173 17.8753 20.5242 17.8313 21.0138 17.9683C22.0108 18.2473 22.6192 19.1983 22.3702 20.0882Z" fill="#DE320E"/>
</svg>
