<svg width="25" height="25" viewBox="0 0 25 25" fill="none" xmlns="http://www.w3.org/2000/svg">
<g clip-path="url(#clip0_12_3696)">
<path d="M23.9574 3.74975H23.1241V0.416639C23.1241 0.18655 22.9376 0 22.7075 0H20.2077C19.9776 0 19.791 0.18655 19.791 0.416639V20.8319C19.7944 20.8764 19.8016 20.9204 19.8127 20.9636L21.0626 24.7134C21.1345 24.9319 21.3699 25.0509 21.5885 24.9791C21.7143 24.9377 21.8129 24.8391 21.8542 24.7134L23.1041 20.9636C23.1146 20.9204 23.1213 20.8763 23.1241 20.8319V4.58303H23.5408V10.8326C23.5408 11.0627 23.7273 11.2492 23.9574 11.2492C24.1875 11.2492 24.374 11.0627 24.374 10.8326V4.16639C24.374 3.9363 24.1875 3.74975 23.9574 3.74975ZM21.4576 23.2643L20.7859 21.2486H22.1292L21.4576 23.2643ZM22.2908 20.4153H20.6243V4.58303H22.2908V20.4153ZM22.2908 3.74975H20.6243V0.833278H22.2908V3.74975Z" fill="#DE320E"/>
<path d="M18.1198 5.39089C18.1174 5.35397 18.1101 5.31756 18.0981 5.28256C18.0936 5.26923 18.0902 5.25673 18.0844 5.24382C18.0641 5.19851 18.0359 5.15716 18.0011 5.12174L13.0014 0.122075C12.9663 0.0870775 12.9251 0.0588502 12.8797 0.0387474C12.8664 0.0324978 12.8531 0.0291647 12.8381 0.0241651C12.8041 0.0126554 12.7689 0.0056767 12.7331 0.00333311C12.7264 0.00499967 12.7181 0 12.7085 0H1.04262C0.812527 0 0.625977 0.18655 0.625977 0.416639V24.5817C0.625977 24.8118 0.812527 24.9983 1.04262 24.9983H17.7082C17.9383 24.9983 18.1248 24.8118 18.1248 24.5817V5.41631C18.1248 5.40756 18.1202 5.39964 18.1198 5.39089ZM13.1251 1.42241L16.7024 4.99967H13.1251V1.42241ZM17.2915 24.1651H1.45925V0.833278H12.2919V5.41631C12.2919 5.64639 12.4784 5.83294 12.7085 5.83294H17.2915V24.1651Z" fill="#DE320E"/>
<path d="M15.208 8.33301H3.5309C3.30081 8.33301 3.11426 8.51956 3.11426 8.74965C3.11426 8.97973 3.30081 9.16628 3.5309 9.16628H15.208C15.4381 9.16628 15.6247 8.97973 15.6247 8.74965C15.6247 8.51956 15.4381 8.33301 15.208 8.33301Z" fill="#DE320E"/>
<path d="M15.208 10.833H3.5309C3.30081 10.833 3.11426 11.0196 3.11426 11.2496C3.11426 11.4797 3.30081 11.6663 3.5309 11.6663H15.208C15.4381 11.6663 15.6247 11.4797 15.6247 11.2496C15.6247 11.0196 15.4381 10.833 15.208 10.833Z" fill="#DE320E"/>
<path d="M15.208 13.332H3.5309C3.30081 13.332 3.11426 13.5186 3.11426 13.7487C3.11426 13.9788 3.30081 14.1653 3.5309 14.1653H15.208C15.4381 14.1653 15.6247 13.9788 15.6247 13.7487C15.6247 13.5186 15.4381 13.332 15.208 13.332Z" fill="#DE320E"/>
<path d="M15.208 15.832H3.5309C3.30081 15.832 3.11426 16.0186 3.11426 16.2487C3.11426 16.4788 3.30081 16.6653 3.5309 16.6653H15.208C15.4381 16.6653 15.6247 16.4788 15.6247 16.2487C15.6247 16.0186 15.4381 15.832 15.208 15.832Z" fill="#DE320E"/>
</g>
<defs>
<clipPath id="clip0_12_3696">
<rect width="25" height="25" fill="white"/>
</clipPath>
</defs>
</svg>
