<svg width="25" height="25" viewBox="0 0 25 25" fill="none" xmlns="http://www.w3.org/2000/svg">
<path d="M23.8281 13.2812H23.4375V8.76992C23.9316 7.91133 24.2188 6.91914 24.2188 5.85938C24.2188 2.62852 21.5902 0 18.3594 0C16.448 0 14.7531 0.923828 13.6828 2.34375H3.51562C3.39687 2.34375 3.28477 2.39766 3.21055 2.49023L0.0855469 6.39648C-0.00820313 6.51367 -0.0261719 6.67422 0.0386719 6.80977C0.103906 6.94531 0.240234 7.03125 0.390625 7.03125H0.78125V13.2812H0.390625C0.174609 13.2812 0 13.4559 0 13.6719V15.2344C0 15.4504 0.174609 15.625 0.390625 15.625H0.78125V21.875H0.390625C0.174609 21.875 0 22.0496 0 22.2656V23.8281C0 24.0441 0.174609 24.2188 0.390625 24.2188H23.8281C24.0441 24.2188 24.2188 24.0441 24.2188 23.8281V22.2656C24.2188 22.0496 24.0441 21.875 23.8281 21.875H23.4375V15.625H23.8281C24.0441 15.625 24.2188 15.4504 24.2188 15.2344V13.6719C24.2188 13.4559 24.0441 13.2812 23.8281 13.2812ZM22.6562 13.2812H21.875V10.5359C22.1562 10.3238 22.4176 10.0879 22.6562 9.82969V13.2812ZM14.0625 9.82969V13.2812H10.1562V8.59375H13.1812C13.4203 9.04453 13.7188 9.45781 14.0625 9.82969ZM14.8438 10.5359C15.3148 10.891 15.8402 11.1762 16.4062 11.377V13.2812H14.8438V10.5359ZM17.1875 11.6008C17.5664 11.6777 17.9582 11.7188 18.3594 11.7188C19.3469 11.7188 20.2766 11.4707 21.0938 11.0375V13.2812H17.1875V11.6008ZM18.3594 0.78125C21.1594 0.78125 23.4375 3.05937 23.4375 5.85938C23.4375 8.65938 21.1594 10.9375 18.3594 10.9375C15.5594 10.9375 13.2812 8.65938 13.2812 5.85938C13.2812 3.05937 15.5594 0.78125 18.3594 0.78125ZM3.70312 3.125H13.1809C12.748 3.94219 12.5 4.87187 12.5 5.85938C12.5 5.99141 12.5113 6.12031 12.5199 6.25H1.20352L3.70312 3.125ZM1.5625 7.03125H12.618C12.6727 7.29961 12.7516 7.55859 12.8418 7.8125H9.76562C9.54961 7.8125 9.375 7.9875 9.375 8.20312V13.2812H7.8125V8.20312C7.8125 7.9875 7.63789 7.8125 7.42188 7.8125H2.73438C2.51836 7.8125 2.34375 7.9875 2.34375 8.20312V13.2812H1.5625V7.03125ZM7.03125 13.2812H3.125V8.59375H7.03125V13.2812ZM23.4375 23.4375H0.78125V22.6562H23.4375V23.4375ZM7.03125 21.875H3.125V17.1875H7.03125V21.875ZM14.0625 21.875H10.1562V17.1875H14.0625V21.875ZM21.0938 21.875H17.1875V17.1875H21.0938V21.875ZM22.6562 21.875H21.875V16.7969C21.875 16.5809 21.7004 16.4062 21.4844 16.4062H16.7969C16.5809 16.4062 16.4062 16.5809 16.4062 16.7969V21.875H14.8438V16.7969C14.8438 16.5809 14.6691 16.4062 14.4531 16.4062H9.76562C9.54961 16.4062 9.375 16.5809 9.375 16.7969V21.875H7.8125V16.7969C7.8125 16.5809 7.63789 16.4062 7.42188 16.4062H2.73438C2.51836 16.4062 2.34375 16.5809 2.34375 16.7969V21.875H1.5625V15.625H22.6562V21.875ZM23.4375 14.8438H0.78125V14.0625H23.4375V14.8438Z" fill="#DE320E"/>
<path d="M3.90625 10.1562H4.6875V11.7188H3.90625V10.1562Z" fill="#DE320E"/>
<path d="M10.9375 10.1562H11.7188V11.7188H10.9375V10.1562Z" fill="#DE320E"/>
<path d="M17.9688 18.75H18.75V20.3125H17.9688V18.75Z" fill="#DE320E"/>
<path d="M10.9375 18.75H11.7188V20.3125H10.9375V18.75Z" fill="#DE320E"/>
<path d="M3.90625 18.75H4.6875V20.3125H3.90625V18.75Z" fill="#DE320E"/>
<path d="M16.0156 6.25C16.8773 6.25 17.5781 5.54922 17.5781 4.6875C17.5781 3.82578 16.8773 3.125 16.0156 3.125C15.1539 3.125 14.4531 3.82578 14.4531 4.6875C14.4531 5.54922 15.1539 6.25 16.0156 6.25ZM16.0156 3.90625C16.4465 3.90625 16.7969 4.25664 16.7969 4.6875C16.7969 5.11836 16.4465 5.46875 16.0156 5.46875C15.5848 5.46875 15.2344 5.11836 15.2344 4.6875C15.2344 4.25664 15.5848 3.90625 16.0156 3.90625Z" fill="#DE320E"/>
<path d="M19.1406 7.03125C19.1406 7.89297 19.8414 8.59375 20.7031 8.59375C21.5648 8.59375 22.2656 7.89297 22.2656 7.03125C22.2656 6.16953 21.5648 5.46875 20.7031 5.46875C19.8414 5.46875 19.1406 6.16953 19.1406 7.03125ZM20.7031 6.25C21.134 6.25 21.4844 6.60039 21.4844 7.03125C21.4844 7.46211 21.134 7.8125 20.7031 7.8125C20.2723 7.8125 19.9219 7.46211 19.9219 7.03125C19.9219 6.60039 20.2723 6.25 20.7031 6.25Z" fill="#DE320E"/>
<path d="M16.439 9.21289L19.5629 2.18009L20.2774 2.49744L17.1534 9.53024L16.439 9.21289Z" fill="#DE320E"/>
</svg>
