<svg width="9" height="9" viewBox="0 0 9 9" fill="none" xmlns="http://www.w3.org/2000/svg">
<g clip-path="url(#clip0_354:2148)">
<path d="M8.41566 1.9226C8.26193 1.6584 7.97909 1.47894 7.65145 1.47894H4.54581V1.9226H8.41566ZM0.552856 5.91556H8.53877V6.35923H0.552856V5.91556ZM4.54581 4.14091H8.53877V4.58458H4.54581V4.14091ZM4.54581 3.25359H8.53877V3.69725H4.54581V3.25359ZM0.552856 5.02824H8.53877V5.4719H0.552856V5.02824ZM1.44018 7.24655H7.65145C7.97909 7.24655 8.26193 7.06709 8.41566 6.80289H0.675973C0.829702 7.06709 1.11254 7.24655 1.44018 7.24655ZM4.54581 2.36627H8.53877V2.80993H4.54581V2.36627Z" fill="#B22334"/>
<path d="M0.567941 6.50979C0.571712 6.53042 0.575927 6.55105 0.581029 6.57124C0.586797 6.59364 0.593895 6.61516 0.601437 6.6369C0.62118 6.69435 0.645138 6.74981 0.675307 6.80172L0.675973 6.80283H8.41566L8.4161 6.80194C8.44588 6.74964 8.47054 6.6946 8.48975 6.63756C8.50436 6.59593 8.51563 6.55321 8.52347 6.50979C8.53256 6.46099 8.53877 6.41085 8.53877 6.35917H0.552856C0.552856 6.41085 0.559068 6.46076 0.567941 6.50979ZM0.552856 5.47184H8.53877V5.9155H0.552856V5.47184ZM0.552856 4.58452V5.02818H8.53877V4.58452H4.54581H0.552856ZM4.54581 3.69719H8.53877V4.14086H4.54581V3.69719ZM4.54581 2.80987H8.53877V3.25353H4.54581V2.80987ZM0.675973 1.92255L0.675307 1.92366L0.675973 1.92255ZM0.581251 2.15414C0.586797 2.13151 0.594561 2.10999 0.601659 2.08825C0.593956 2.10993 0.587147 2.13191 0.581251 2.15414V2.15414ZM4.54581 2.36621H8.53877C8.53877 2.31452 8.53256 2.26439 8.52347 2.21536C8.5157 2.17191 8.50435 2.12917 8.48953 2.08759C8.4703 2.03031 8.44556 1.97504 8.41566 1.92255H4.54581V2.36621Z" fill="#EEEEEE"/>
<path d="M4.54581 1.47894H1.44018C1.20485 1.47894 0.979153 1.57243 0.812748 1.73883C0.646342 1.90524 0.552856 2.13093 0.552856 2.36627L0.552856 4.58458H4.54581V1.47894Z" fill="#3C3B6E"/>
<path d="M0.996704 2.0836L1.1338 2.1832L1.08144 2.34403L1.21831 2.24464L1.3554 2.34403L1.30305 2.1832L1.44014 2.0836H1.27067L1.21831 1.92255L1.16618 2.0836H0.996704ZM1.44037 2.52726L1.57746 2.62686L1.52511 2.78769L1.66198 2.68831L1.79907 2.78769L1.74671 2.62686L1.88381 2.52726H1.71433L1.66198 2.36621L1.60984 2.52726H1.44037ZM2.32769 2.52726L2.46478 2.62686L2.41243 2.78769L2.5493 2.68831L2.68639 2.78769L2.63404 2.62686L2.77113 2.52726H2.60165L2.5493 2.36621L2.49717 2.52726H2.32769ZM3.21501 2.52726L3.35211 2.62686L3.29975 2.78769L3.43662 2.68831L3.57371 2.78769L3.52136 2.62686L3.65845 2.52726H3.48898L3.43662 2.36621L3.38449 2.52726H3.21501ZM1.44037 3.41458L1.57746 3.51418L1.52511 3.67501L1.66198 3.57563L1.79907 3.67501L1.74671 3.51418L1.88381 3.41458H1.71433L1.66198 3.25353L1.60984 3.41458H1.44037ZM2.32769 3.41458L2.46478 3.51418L2.41243 3.67501L2.5493 3.57563L2.68639 3.67501L2.63404 3.51418L2.77113 3.41458H2.60165L2.5493 3.25353L2.49717 3.41458H2.32769ZM3.21501 3.41458L3.35211 3.51418L3.29975 3.67501L3.43662 3.57563L3.57371 3.67501L3.52136 3.51418L3.65845 3.41458H3.48898L3.43662 3.25353L3.38449 3.41458H3.21501ZM1.88403 2.0836L2.02112 2.1832L1.96877 2.34403L2.10564 2.24464L2.24273 2.34403L2.19038 2.1832L2.32747 2.0836H2.15799L2.10564 1.92255L2.05351 2.0836H1.88403ZM2.77135 2.0836L2.90844 2.1832L2.85609 2.34403L2.99296 2.24464L3.13005 2.34403L3.0777 2.1832L3.21479 2.0836H3.04531L2.99296 1.92255L2.94083 2.0836H2.77135ZM3.65868 2.0836L3.79577 2.1832L3.74342 2.34403L3.88029 2.24464L4.01738 2.34403L3.96502 2.1832L4.10212 2.0836H3.93264L3.88029 1.92255L3.82815 2.0836H3.65868ZM0.996704 2.97092L1.1338 3.07052L1.08144 3.23135L1.21831 3.13197L1.3554 3.23135L1.30305 3.07052L1.44014 2.97092H1.27067L1.21831 2.80987L1.16618 2.97092H0.996704ZM1.96877 3.23135L2.10564 3.13197L2.24273 3.23135L2.19038 3.07052L2.32747 2.97092H2.15799L2.10564 2.80987L2.05351 2.97092H1.88403L2.02112 3.07052L1.96877 3.23135ZM2.77135 2.97092L2.90844 3.07052L2.85609 3.23135L2.99296 3.13197L3.13005 3.23135L3.0777 3.07052L3.21479 2.97092H3.04531L2.99296 2.80987L2.94083 2.97092H2.77135ZM3.65868 2.97092L3.79577 3.07052L3.74342 3.23135L3.88029 3.13197L4.01738 3.23135L3.96502 3.07052L4.10212 2.97092H3.93264L3.88029 2.80987L3.82815 2.97092H3.65868ZM0.996704 3.85824L1.1338 3.95785L1.08144 4.11867L1.21831 4.01929L1.3554 4.11867L1.30305 3.95785L1.44014 3.85824H1.27067L1.21831 3.69719L1.16618 3.85824H0.996704ZM1.96877 4.11867L2.10564 4.01929L2.24273 4.11867L2.19038 3.95785L2.32747 3.85824H2.15799L2.10564 3.69719L2.05351 3.85824H1.88403L2.02112 3.95785L1.96877 4.11867ZM2.77135 3.85824L2.90844 3.95785L2.85609 4.11867L2.99296 4.01929L3.13005 4.11867L3.0777 3.95785L3.21479 3.85824H3.04531L2.99296 3.69719L2.94083 3.85824H2.77135ZM3.65868 3.85824L3.79577 3.95785L3.74342 4.11867L3.88029 4.01929L4.01738 4.11867L3.96502 3.95785L4.10212 3.85824H3.93264L3.88029 3.69719L3.82815 3.85824H3.65868Z" fill="white"/>
</g>
<defs>
<clipPath id="clip0_354:2148">
<rect x="0.552856" y="0.369751" width="7.98592" height="7.98592" rx="3.99296" fill="white"/>
</clipPath>
</defs>
</svg>
