<svg width="12" height="12" viewBox="0 0 12 12" fill="none" xmlns="http://www.w3.org/2000/svg">
<g clip-path="url(#clip0_2:388)">
<path d="M10.6667 1.6665H1.33333C0.979711 1.6665 0.640573 1.80698 0.390524 2.05703C0.140476 2.30708 0 2.64622 0 2.99984L0 5.99984H12V2.99984C12 2.64622 11.8595 2.30708 11.6095 2.05703C11.3594 1.80698 11.0203 1.6665 10.6667 1.6665Z" fill="#005BBB"/>
<path d="M12 9C12 9.35362 11.8595 9.69276 11.6095 9.94281C11.3594 10.1929 11.0203 10.3333 10.6667 10.3333H1.33333C0.979711 10.3333 0.640573 10.1929 0.390524 9.94281C0.140476 9.69276 0 9.35362 0 9V6H12V9Z" fill="#FFD500"/>
</g>
<defs>
<clipPath id="clip0_2:388">
<rect width="12" height="12" rx="5" fill="white"/>
</clipPath>
</defs>
</svg>
