<svg width="9" height="9" viewBox="0 0 9 9" fill="none" xmlns="http://www.w3.org/2000/svg">
<g clip-path="url(#clip0_354:2145)">
<path d="M7.82747 1.47888H1.61621C1.38087 1.47888 1.15518 1.57237 0.988773 1.73877C0.822368 1.90518 0.728882 2.13087 0.728882 2.36621L0.728882 4.36268H8.7148V2.36621C8.7148 2.13087 8.62131 1.90518 8.45491 1.73877C8.2885 1.57237 8.06281 1.47888 7.82747 1.47888Z" fill="#005BBB"/>
<path d="M8.7148 6.35915C8.7148 6.59448 8.62131 6.82018 8.45491 6.98658C8.2885 7.15299 8.06281 7.24647 7.82747 7.24647H1.61621C1.38087 7.24647 1.15518 7.15299 0.988773 6.98658C0.822368 6.82018 0.728882 6.59448 0.728882 6.35915V4.36267H8.7148V6.35915Z" fill="#FFD500"/>
</g>
<defs>
<clipPath id="clip0_354:2145">
<rect x="0.728882" y="0.36969" width="7.98592" height="7.98592" rx="3.99296" fill="white"/>
</clipPath>
</defs>
</svg>
