<svg width="12" height="12" viewBox="0 0 12 12" fill="none" xmlns="http://www.w3.org/2000/svg">
<g clip-path="url(#clip0_2:391)">
<path d="M11.815 2.33317C11.584 1.93617 11.159 1.6665 10.6667 1.6665H6V2.33317H11.815ZM0 8.33317H12V8.99984H0V8.33317ZM6 5.6665H12V6.33317H6V5.6665ZM6 4.33317H12V4.99984H6V4.33317ZM0 6.99984H12V7.6665H0V6.99984ZM1.33333 10.3332H10.6667C11.159 10.3332 11.584 10.0635 11.815 9.6665H0.185C0.416 10.0635 0.841 10.3332 1.33333 10.3332ZM6 2.99984H12V3.6665H6V2.99984Z" fill="#B22334"/>
<path d="M0.0226667 9.2265C0.0283333 9.2575 0.0346667 9.2885 0.0423333 9.31883C0.051 9.35249 0.0616667 9.38483 0.073 9.4175C0.102667 9.50383 0.138667 9.58716 0.184 9.66516L0.185 9.66683H11.815L11.8157 9.66549C11.8604 9.58691 11.8975 9.50419 11.9263 9.41849C11.9483 9.35594 11.9652 9.29174 11.977 9.2265C11.9907 9.15316 12 9.07783 12 9.00016H0C0 9.07783 0.00933333 9.15283 0.0226667 9.2265ZM0 7.66683H12V8.3335H0V7.66683ZM0 6.3335V7.00016H12V6.3335H6H0ZM6 5.00016H12V5.66683H6V5.00016ZM6 3.66683H12V4.3335H6V3.66683ZM0.185 2.3335L0.184 2.33516L0.185 2.3335ZM0.0426667 2.6815C0.051 2.6475 0.0626667 2.61516 0.0733333 2.5825C0.0617577 2.61506 0.0515268 2.64809 0.0426667 2.6815ZM6 3.00016H12C12 2.9225 11.9907 2.84716 11.977 2.7735C11.9653 2.7082 11.9483 2.64398 11.926 2.5815C11.8971 2.49543 11.8599 2.41238 11.815 2.3335H6V3.00016Z" fill="#EEEEEE"/>
<path d="M6 1.6665H1.33333C0.979711 1.6665 0.640573 1.80698 0.390524 2.05703C0.140476 2.30708 0 2.64622 0 2.99984L0 6.33317H6V1.6665Z" fill="#3C3B6E"/>
<path d="M0.666992 2.5755L0.872992 2.72516L0.794326 2.96683L0.999992 2.8175L1.20599 2.96683L1.12733 2.72516L1.33333 2.5755H1.07866L0.999992 2.3335L0.921659 2.5755H0.666992ZM1.33366 3.24216L1.53966 3.39183L1.46099 3.6335L1.66666 3.48416L1.87266 3.6335L1.79399 3.39183L1.99999 3.24216H1.74533L1.66666 3.00016L1.58833 3.24216H1.33366ZM2.66699 3.24216L2.87299 3.39183L2.79433 3.6335L2.99999 3.48416L3.20599 3.6335L3.12733 3.39183L3.33333 3.24216H3.07866L2.99999 3.00016L2.92166 3.24216H2.66699ZM4.00033 3.24216L4.20633 3.39183L4.12766 3.6335L4.33333 3.48416L4.53933 3.6335L4.46066 3.39183L4.66666 3.24216H4.41199L4.33333 3.00016L4.25499 3.24216H4.00033ZM1.33366 4.5755L1.53966 4.72516L1.46099 4.96683L1.66666 4.8175L1.87266 4.96683L1.79399 4.72516L1.99999 4.5755H1.74533L1.66666 4.3335L1.58833 4.5755H1.33366ZM2.66699 4.5755L2.87299 4.72516L2.79433 4.96683L2.99999 4.8175L3.20599 4.96683L3.12733 4.72516L3.33333 4.5755H3.07866L2.99999 4.3335L2.92166 4.5755H2.66699ZM4.00033 4.5755L4.20633 4.72516L4.12766 4.96683L4.33333 4.8175L4.53933 4.96683L4.46066 4.72516L4.66666 4.5755H4.41199L4.33333 4.3335L4.25499 4.5755H4.00033ZM2.00033 2.5755L2.20633 2.72516L2.12766 2.96683L2.33333 2.8175L2.53933 2.96683L2.46066 2.72516L2.66666 2.5755H2.41199L2.33333 2.3335L2.25499 2.5755H2.00033ZM3.33366 2.5755L3.53966 2.72516L3.46099 2.96683L3.66666 2.8175L3.87266 2.96683L3.79399 2.72516L3.99999 2.5755H3.74533L3.66666 2.3335L3.58833 2.5755H3.33366ZM4.66699 2.5755L4.87299 2.72516L4.79433 2.96683L4.99999 2.8175L5.20599 2.96683L5.12733 2.72516L5.33333 2.5755H5.07866L4.99999 2.3335L4.92166 2.5755H4.66699ZM0.666992 3.90883L0.872992 4.0585L0.794326 4.30016L0.999992 4.15083L1.20599 4.30016L1.12733 4.0585L1.33333 3.90883H1.07866L0.999992 3.66683L0.921659 3.90883H0.666992ZM2.12766 4.30016L2.33333 4.15083L2.53933 4.30016L2.46066 4.0585L2.66666 3.90883H2.41199L2.33333 3.66683L2.25499 3.90883H2.00033L2.20633 4.0585L2.12766 4.30016ZM3.33366 3.90883L3.53966 4.0585L3.46099 4.30016L3.66666 4.15083L3.87266 4.30016L3.79399 4.0585L3.99999 3.90883H3.74533L3.66666 3.66683L3.58833 3.90883H3.33366ZM4.66699 3.90883L4.87299 4.0585L4.79433 4.30016L4.99999 4.15083L5.20599 4.30016L5.12733 4.0585L5.33333 3.90883H5.07866L4.99999 3.66683L4.92166 3.90883H4.66699ZM0.666992 5.24216L0.872992 5.39183L0.794326 5.6335L0.999992 5.48416L1.20599 5.6335L1.12733 5.39183L1.33333 5.24216H1.07866L0.999992 5.00016L0.921659 5.24216H0.666992ZM2.12766 5.6335L2.33333 5.48416L2.53933 5.6335L2.46066 5.39183L2.66666 5.24216H2.41199L2.33333 5.00016L2.25499 5.24216H2.00033L2.20633 5.39183L2.12766 5.6335ZM3.33366 5.24216L3.53966 5.39183L3.46099 5.6335L3.66666 5.48416L3.87266 5.6335L3.79399 5.39183L3.99999 5.24216H3.74533L3.66666 5.00016L3.58833 5.24216H3.33366ZM4.66699 5.24216L4.87299 5.39183L4.79433 5.6335L4.99999 5.48416L5.20599 5.6335L5.12733 5.39183L5.33333 5.24216H5.07866L4.99999 5.00016L4.92166 5.24216H4.66699Z" fill="white"/>
</g>
<defs>
<clipPath id="clip0_2:391">
<rect width="12" height="12" rx="5" fill="white"/>
</clipPath>
</defs>
</svg>
