<svg width="30" height="30" viewBox="0 0 30 30" fill="none" xmlns="http://www.w3.org/2000/svg">
<path d="M12.5 23.75C12.2079 23.7506 11.9249 23.6489 11.7 23.4626C11.5734 23.3576 11.4688 23.2287 11.3921 23.0833C11.3154 22.9379 11.2682 22.7787 11.2531 22.615C11.238 22.4513 11.2553 22.2862 11.3041 22.1292C11.353 21.9722 11.4322 21.8264 11.5375 21.7001L17.1375 15L11.7375 8.28755C11.6337 8.15969 11.5561 8.01257 11.5093 7.85464C11.4626 7.69672 11.4474 7.53111 11.4649 7.36732C11.4823 7.20353 11.5319 7.04481 11.6109 6.90026C11.6898 6.75572 11.7966 6.6282 11.925 6.52505C12.0543 6.41125 12.2058 6.32542 12.3699 6.27293C12.5339 6.22045 12.7071 6.20244 12.8785 6.22005C13.0498 6.23765 13.2157 6.29049 13.3657 6.37524C13.5157 6.45999 13.6465 6.57483 13.75 6.71255L19.7875 14.2125C19.9714 14.4362 20.0719 14.7168 20.0719 15.0063C20.0719 15.2958 19.9714 15.5764 19.7875 15.8L13.5375 23.3C13.4121 23.4513 13.2528 23.5709 13.0726 23.6491C12.8923 23.7273 12.6961 23.7619 12.5 23.75Z" fill="#844A3E"/>
</svg>
