<svg width="30" height="30" viewBox="0 0 30 30" fill="none" xmlns="http://www.w3.org/2000/svg">
<path d="M25.9541 14.3642C26.4463 15.0146 26.7188 15.8115 26.7188 16.6406C26.7188 17.956 25.9834 19.2012 24.7998 19.8955C24.4951 20.0742 24.1482 20.1683 23.7949 20.1679H16.7695L16.9453 23.7685C16.9863 24.6387 16.6787 25.4648 16.0811 26.0947C15.7878 26.4052 15.4339 26.6522 15.0414 26.8205C14.6488 26.9888 14.2259 27.0748 13.7988 27.0732C12.2754 27.0732 10.9277 26.0478 10.5234 24.5801L8.00684 15.4687H7.99805V2.92967H21.835C22.1045 2.92967 22.3682 2.9824 22.6113 3.08787C24.0059 3.6826 24.9053 5.0449 24.9053 6.55662C24.9053 6.92576 24.8525 7.28904 24.7471 7.6406C25.2393 8.29099 25.5117 9.08787 25.5117 9.91697C25.5117 10.2861 25.459 10.6494 25.3535 11.001C25.8457 11.6513 26.1182 12.4482 26.1182 13.2773C26.1123 13.6465 26.0596 14.0127 25.9541 14.3642ZM3.28125 14.5312V3.86717C3.28125 3.34861 3.7002 2.92967 4.21875 2.92967H6.12305V15.4687H4.21875C3.7002 15.4687 3.28125 15.0498 3.28125 14.5312Z" fill="#E44347"/>
</svg>
