<svg width="30" height="30" viewBox="0 0 30 30" fill="none" xmlns="http://www.w3.org/2000/svg">
<path d="M25.9541 14.3642C26.4463 15.0146 26.7188 15.8115 26.7188 16.6406C26.7188 17.956 25.9834 19.2011 24.7998 19.8955C24.4951 20.0742 24.1482 20.1683 23.7949 20.1679H16.7695L16.9453 23.7685C16.9863 24.6387 16.6787 25.4648 16.0811 26.0947C15.7878 26.4052 15.4339 26.6522 15.0414 26.8205C14.6488 26.9888 14.2259 27.0748 13.7988 27.0732C12.2754 27.0732 10.9277 26.0478 10.5234 24.5801L8.00684 15.4687H4.21875C3.7002 15.4687 3.28125 15.0498 3.28125 14.5312V3.86716C3.28125 3.34861 3.7002 2.92966 4.21875 2.92966H21.835C22.1045 2.92966 22.3682 2.9824 22.6113 3.08787C24.0059 3.6826 24.9053 5.0449 24.9053 6.55662C24.9053 6.92576 24.8525 7.28904 24.7471 7.6406C25.2393 8.29099 25.5117 9.08787 25.5117 9.91697C25.5117 10.2861 25.459 10.6494 25.3535 11.001C25.8457 11.6513 26.1182 12.4482 26.1182 13.2773C26.1123 13.6465 26.0596 14.0127 25.9541 14.3642ZM5.39062 5.03904V13.3594H7.76367V5.03904H5.39062ZM24.0352 15.3808L23.3936 14.8242L23.8008 14.0801C23.9349 13.8349 24.0045 13.5597 24.0029 13.2803C24.0029 12.7969 23.792 12.3369 23.4287 12.0205L22.7871 11.4638L23.1943 10.7197C23.3285 10.4746 23.3981 10.1993 23.3965 9.9199C23.3965 9.4365 23.1855 8.97654 22.8223 8.66013L22.1807 8.10349L22.5879 7.35935C22.7221 7.11423 22.7916 6.83899 22.79 6.55955C22.79 5.9033 22.4033 5.3115 21.8057 5.04197H9.63867V13.4531L12.5537 24.0146C12.6289 24.2853 12.7902 24.5242 13.0133 24.6949C13.2364 24.8657 13.5091 24.9591 13.79 24.9609C14.0127 24.9609 14.2324 24.8965 14.4082 24.7646C14.6982 24.5478 14.8535 24.2197 14.8359 23.8711L14.5547 18.0586H23.7656C24.2871 17.7392 24.6094 17.2002 24.6094 16.6406C24.6094 16.1572 24.3984 15.7002 24.0352 15.3808Z" fill="#DE320E"/>
</svg>
