<svg width="30" height="30" viewBox="0 0 30 30" fill="none" xmlns="http://www.w3.org/2000/svg">
<path d="M25.9541 15.6358C26.4463 14.9854 26.7188 14.1885 26.7188 13.3594C26.7188 12.044 25.9834 10.7989 24.7998 10.1045C24.4951 9.92579 24.1482 9.83172 23.7949 9.83205H16.7695L16.9453 6.23147C16.9863 5.36135 16.6787 4.53518 16.0811 3.9053C15.7878 3.59483 15.4339 3.34781 15.0414 3.17951C14.6488 3.01121 14.2259 2.92519 13.7988 2.92678C12.2754 2.92678 10.9277 3.95217 10.5234 5.41994L8.00684 14.5313H4.21875C3.7002 14.5313 3.28125 14.9502 3.28125 15.4688V26.1328C3.28125 26.6514 3.7002 27.0703 4.21875 27.0703H21.835C22.1045 27.0703 22.3682 27.0176 22.6113 26.9121C24.0059 26.3174 24.9053 24.9551 24.9053 23.4434C24.9053 23.0742 24.8525 22.711 24.7471 22.3594C25.2393 21.709 25.5117 20.9121 25.5117 20.083C25.5117 19.7139 25.459 19.3506 25.3535 18.999C25.8457 18.3487 26.1182 17.5518 26.1182 16.7227C26.1123 16.3535 26.0596 15.9873 25.9541 15.6358ZM5.39062 24.961V16.6406H7.76367V24.961H5.39062ZM24.0352 14.6192L23.3936 15.1758L23.8008 15.9199C23.9349 16.1651 24.0045 16.4403 24.0029 16.7197C24.0029 17.2031 23.792 17.6631 23.4287 17.9795L22.7871 18.5362L23.1943 19.2803C23.3285 19.5254 23.3981 19.8007 23.3965 20.0801C23.3965 20.5635 23.1855 21.0235 22.8223 21.3399L22.1807 21.8965L22.5879 22.6406C22.7221 22.8858 22.7916 23.161 22.79 23.4405C22.79 24.0967 22.4033 24.6885 21.8057 24.958H9.63867V16.5469L12.5537 5.98537C12.6289 5.71467 12.7902 5.47585 13.0133 5.30509C13.2364 5.13433 13.5091 5.04095 13.79 5.03908C14.0127 5.03908 14.2324 5.10354 14.4082 5.23537C14.6982 5.45217 14.8535 5.7803 14.8359 6.12893L14.5547 11.9414H23.7656C24.2871 12.2608 24.6094 12.7998 24.6094 13.3594C24.6094 13.8428 24.3984 14.2998 24.0352 14.6192Z" fill="#5A9A4A"/>
</svg>
