<svg width="30" height="30" viewBox="0 0 30 30" fill="none" xmlns="http://www.w3.org/2000/svg">
<path d="M26.25 15V20.625H3.75V5.625H15V3.75H3.75C3.25272 3.75 2.77581 3.94754 2.42417 4.29917C2.07254 4.65081 1.875 5.12772 1.875 5.625V20.625C1.875 21.1223 2.07254 21.5992 2.42417 21.9508C2.77581 22.3025 3.25272 22.5 3.75 22.5H11.25V26.25H7.5V28.125H22.5V26.25H18.75V22.5H26.25C26.7473 22.5 27.2242 22.3025 27.5758 21.9508C27.9275 21.5992 28.125 21.1223 28.125 20.625V15H26.25ZM16.875 26.25H13.125V22.5H16.875V26.25Z" fill="#DE320E"/>
<circle cx="23.5177" cy="6" r="6" fill="#DE320E"/>
</svg>
