<svg width="21" height="20" viewBox="0 0 21 20" fill="none" xmlns="http://www.w3.org/2000/svg">
<path d="M18.1617 4.49609L15.9776 2.41797C15.8236 2.27059 15.6404 2.15366 15.4388 2.07389C15.2371 1.99412 15.0209 1.95308 14.8025 1.95313C14.3575 1.95313 13.9392 2.11914 13.6254 2.41797L11.2752 4.65625C11.1205 4.80298 10.9977 4.97738 10.9139 5.16944C10.8302 5.3615 10.7871 5.56743 10.7871 5.77539C10.7871 6.19922 10.9614 6.59766 11.2752 6.89648L12.9938 8.5332C12.5915 9.37766 12.0322 10.1459 11.3429 10.8008C10.6553 11.4589 9.84873 11.9935 8.96192 12.3789L7.24336 10.7422C7.08929 10.5948 6.90617 10.4779 6.70451 10.3981C6.50285 10.3183 6.28663 10.2773 6.06826 10.2773C5.62324 10.2773 5.20488 10.4434 4.89111 10.7422L2.53887 12.9785C2.38393 13.1255 2.26105 13.3002 2.17728 13.4926C2.09352 13.685 2.05053 13.8913 2.05078 14.0996C2.05078 14.5234 2.2251 14.9219 2.53887 15.2207L4.71885 17.2969C5.21924 17.7754 5.91035 18.0469 6.61992 18.0469C6.76963 18.0469 6.91319 18.0352 7.05469 18.0117C9.81914 17.5781 12.561 16.1777 14.7738 14.0723C16.9846 11.9688 18.4529 9.35938 18.9144 6.71875C19.0538 5.91211 18.7729 5.08203 18.1617 4.49609Z" fill="#844A3E"/>
</svg>
