<svg width="10" height="10" viewBox="0 0 10 10" fill="none" xmlns="http://www.w3.org/2000/svg">
<path d="M2.15242 3.92872H0.357048C0.159795 3.92866 -6.27611e-05 3.76872 1.84848e-08 3.57146C2.0945e-05 3.4703 0.0429622 3.37391 0.118109 3.3062L3.68958 0.0918981C3.82049 -0.0256464 4.01749 -0.0303548 4.15387 0.080828L8.08247 3.29515C8.23513 3.42004 8.25765 3.64504 8.13276 3.79772C8.0651 3.88042 7.96396 3.92849 7.85711 3.92872H6.07746C6.16924 6.75019 7.37532 8.5109 9.75607 9.3045C9.90172 9.35318 9.99992 9.48951 9.99999 9.64307C10 9.66233 9.99848 9.68158 9.99534 9.70058C9.96715 9.87335 9.81791 10.0002 9.64283 10.0002C5.43709 10.0002 2.34741 7.46841 2.15242 3.92872Z" fill="#FF0000"/>
</svg>
