<svg width="10" height="10" viewBox="0 0 10 10" fill="none" xmlns="http://www.w3.org/2000/svg">
<path d="M2.15242 6.07128H0.357048C0.159795 6.07134 -6.27611e-05 6.23128 1.84848e-08 6.42854C2.0945e-05 6.5297 0.0429622 6.62609 0.118109 6.6938L3.68958 9.9081C3.82049 10.0256 4.01749 10.0304 4.15387 9.91917L8.08247 6.70485C8.23513 6.57996 8.25765 6.35496 8.13276 6.20228C8.0651 6.11958 7.96396 6.07151 7.85711 6.07128H6.07746C6.16924 3.24981 7.37532 1.4891 9.75607 0.695498C9.90172 0.646823 9.99992 0.510486 9.99999 0.356927C10 0.337674 9.99848 0.318422 9.99534 0.299421C9.96715 0.126652 9.81791 -0.000226021 9.64283 -0.000226021C5.43709 -0.00020504 2.34741 2.53159 2.15242 6.07128Z" fill="#5EBC32"/>
</svg>
