<svg width="20" height="20" viewBox="0 0 20 20" fill="none" xmlns="http://www.w3.org/2000/svg">
<path d="M8.33342 14.9998C9.81256 14.9995 11.2491 14.5044 12.4142 13.5932L16.0776 17.2565L17.2559 16.0782L13.5926 12.4148C14.5042 11.2496 14.9997 9.8127 15.0001 8.33317C15.0001 4.65734 12.0092 1.6665 8.33342 1.6665C4.65758 1.6665 1.66675 4.65734 1.66675 8.33317C1.66675 12.009 4.65758 14.9998 8.33342 14.9998ZM8.33342 3.33317C11.0909 3.33317 13.3334 5.57567 13.3334 8.33317C13.3334 11.0907 11.0909 13.3332 8.33342 13.3332C5.57591 13.3332 3.33341 11.0907 3.33341 8.33317C3.33341 5.57567 5.57591 3.33317 8.33342 3.33317Z" fill="#844A3E"/>
</svg>
