<svg width="10" height="10" viewBox="0 0 10 10" fill="none" xmlns="http://www.w3.org/2000/svg">
<path d="M4.65726 8.15379C4.69548 8.20931 4.74663 8.2547 4.8063 8.28606C4.86596 8.31742 4.93236 8.3338 4.99976 8.3338C5.06716 8.3338 5.13356 8.31742 5.19322 8.28606C5.25289 8.2547 5.30403 8.20931 5.34226 8.15379L9.09226 2.73712C9.13566 2.67465 9.16112 2.60147 9.16586 2.52554C9.17059 2.44962 9.15443 2.37384 9.11913 2.30645C9.08382 2.23907 9.03073 2.18264 8.96561 2.14331C8.90049 2.10399 8.82583 2.08325 8.74976 2.08337H1.24976C1.17386 2.08369 1.09948 2.10469 1.03463 2.14411C0.96977 2.18353 0.916886 2.23989 0.881664 2.30712C0.846441 2.37435 0.830212 2.44991 0.834722 2.52568C0.839232 2.60144 0.86431 2.67455 0.90726 2.73712L4.65726 8.15379Z" fill="#844A3E"/>
</svg>
