<svg width="35" height="35" viewBox="0 0 35 35" fill="none" xmlns="http://www.w3.org/2000/svg">
<path d="M5.24475 9.625C5.24475 8.46468 5.70569 7.35188 6.52616 6.53141C7.34663 5.71094 8.45943 5.25 9.61975 5.25H25.3698C26.5301 5.25 27.6429 5.71094 28.4633 6.53141C29.2838 7.35188 29.7448 8.46468 29.7448 9.625V10.5H29.75V12.25H29.7448V25.375C29.7448 26.5353 29.2838 27.6481 28.4633 28.4686C27.6429 29.2891 26.5301 29.75 25.3698 29.75H9.61975C8.45943 29.75 7.34663 29.2891 6.52616 28.4686C5.70569 27.6481 5.24475 26.5353 5.24475 25.375V9.625ZM27.9948 10.5V9.625C27.9948 8.92881 27.7182 8.26113 27.2259 7.76884C26.7336 7.27656 26.0659 7 25.3698 7H9.61975C8.92356 7 8.25588 7.27656 7.7636 7.76884C7.27131 8.26113 6.99475 8.92881 6.99475 9.625V10.5H27.9948ZM6.99475 12.25V25.375C6.99475 26.0712 7.27131 26.7389 7.7636 27.2312C8.25588 27.7234 8.92356 28 9.61975 28H25.3698C26.0659 28 26.7336 27.7234 27.2259 27.2312C27.7182 26.7389 27.9948 26.0712 27.9948 25.375V12.25H6.99475Z" fill="#DE320E"/>
<path d="M9.625 14C9.39294 14 9.17038 14.0922 9.00628 14.2563C8.84219 14.4204 8.75 14.6429 8.75 14.875V21.875C8.75 22.1071 8.84219 22.3296 9.00628 22.4937C9.17038 22.6578 9.39294 22.75 9.625 22.75H16.625C16.8571 22.75 17.0796 22.6578 17.2437 22.4937C17.4078 22.3296 17.5 22.1071 17.5 21.875V14.875C17.5 14.6429 17.4078 14.4204 17.2437 14.2563C17.0796 14.0922 16.8571 14 16.625 14H9.625ZM15.75 15.75V21H10.5V15.75H15.75Z" fill="#DE320E"/>
</svg>
