<svg width="20" height="19" viewBox="0 0 20 19" fill="none" xmlns="http://www.w3.org/2000/svg">
<path d="M19.8767 8.9582C17.9942 5.03166 14.2676 2.375 10.0004 2.375C5.7333 2.375 2.00558 5.03352 0.124197 8.95857C0.0447902 9.1265 0.00341797 9.31202 0.00341797 9.50019C0.00341797 9.68835 0.0447902 9.87387 0.124197 10.0418C2.00662 13.9683 5.7333 16.625 10.0004 16.625C14.2676 16.625 17.9953 13.9665 19.8767 10.0414C19.9561 9.8735 19.9975 9.68798 19.9975 9.49981C19.9975 9.31165 19.9561 9.12613 19.8767 8.9582ZM10.0004 14.8438C9.01182 14.8438 8.04541 14.5303 7.22341 13.9432C6.40141 13.356 5.76073 12.5214 5.38241 11.545C5.00408 10.5685 4.90509 9.49407 5.09796 8.45749C5.29083 7.4209 5.76689 6.46873 6.46595 5.7214C7.165 4.97406 8.05566 4.46512 9.02527 4.25893C9.99489 4.05274 10.9999 4.15856 11.9133 4.56302C12.8266 4.96747 13.6073 5.6524 14.1566 6.53117C14.7058 7.40995 14.999 8.44311 14.999 9.5C14.9993 10.2018 14.8702 10.8969 14.6191 11.5454C14.368 12.1939 13.9999 12.7831 13.5356 13.2794C13.0714 13.7756 12.5203 14.1692 11.9137 14.4377C11.3071 14.7061 10.6569 14.8441 10.0004 14.8438ZM10.0004 5.9375C9.703 5.94194 9.40748 5.98925 9.12188 6.07814C9.3573 6.42017 9.47027 6.84107 9.44031 7.26451C9.41035 7.68795 9.23943 8.08589 8.95856 8.38616C8.67768 8.68643 8.30545 8.86916 7.90937 8.90119C7.51329 8.93322 7.11958 8.81244 6.79965 8.56076C6.61747 9.2783 6.65035 10.0389 6.89368 10.7354C7.137 11.4319 7.57851 12.0293 8.15606 12.4435C8.7336 12.8577 9.41811 13.0679 10.1132 13.0444C10.8084 13.0209 11.4791 12.765 12.031 12.3126C12.583 11.8603 12.9883 11.2343 13.1901 10.5227C13.3918 9.81119 13.3797 9.04993 13.1555 8.34611C12.9313 7.64229 12.5063 7.03135 11.9404 6.59928C11.3744 6.1672 10.6959 5.93575 10.0004 5.9375Z" fill="#844A3E"/>
</svg>
