<svg width="25" height="25" viewBox="0 0 25 25" fill="none" xmlns="http://www.w3.org/2000/svg">
<path d="M24.1211 9.70075C24.0091 9.35309 23.803 9.04322 23.5257 8.80543C23.2485 8.56765 22.9108 8.41123 22.5501 8.35349L16.8905 7.43371L14.2669 2.33537C14.0998 2.0108 13.8465 1.73854 13.5348 1.54846C13.2231 1.35837 12.8651 1.25781 12.5 1.25781C12.135 1.25781 11.777 1.35837 11.4653 1.54846C11.1536 1.73854 10.9003 2.0108 10.7332 2.33537L8.10955 7.43371L2.45003 8.35349C2.08971 8.41213 1.75251 8.56889 1.47542 8.80657C1.19833 9.04425 0.992067 9.35366 0.879254 9.70085C0.766441 10.048 0.751441 10.4196 0.8359 10.7748C0.920359 11.1299 1.10101 11.4549 1.35804 11.7142L5.39613 15.7849L4.5221 21.4516C4.46602 21.8126 4.51056 22.182 4.65084 22.5192C4.79111 22.8565 5.02168 23.1485 5.31718 23.3632C5.61268 23.5779 5.96167 23.7069 6.32577 23.7361C6.68986 23.7653 7.05495 23.6936 7.38089 23.5287L12.5 20.9462L17.6193 23.5287C17.9453 23.6932 18.3103 23.7647 18.6742 23.7354C19.0382 23.7061 19.387 23.577 19.6824 23.3624C19.9778 23.1477 20.2084 22.8559 20.3487 22.5188C20.4891 22.1817 20.5339 21.8125 20.4781 21.4516L19.6041 15.7849L23.6422 11.7142C23.9 11.4554 24.0812 11.1304 24.1658 10.775C24.2503 10.4197 24.2348 10.0479 24.1211 9.70075ZM22.5327 10.6138L17.9395 15.2442L18.9338 21.69C18.9461 21.7672 18.9369 21.8463 18.907 21.9185C18.8771 21.9907 18.8278 22.0533 18.7646 22.0992C18.7013 22.1452 18.6266 22.1727 18.5487 22.1788C18.4707 22.1849 18.3926 22.1693 18.323 22.1337L12.5 19.1961L6.67699 22.1338C6.60738 22.1694 6.52928 22.185 6.45134 22.1789C6.37341 22.1728 6.29868 22.1453 6.23543 22.0993C6.17219 22.0534 6.1229 21.9908 6.09303 21.9186C6.06316 21.8464 6.05387 21.7673 6.06619 21.6901L7.06058 15.2442L2.46737 10.6138C2.41251 10.5584 2.37397 10.4889 2.35596 10.4131C2.33795 10.3372 2.34117 10.2578 2.36527 10.1837C2.38936 10.1095 2.4334 10.0434 2.49256 9.99264C2.55172 9.94185 2.62372 9.90832 2.70067 9.89572L9.13822 8.84953L12.1225 3.05036C12.1582 2.98099 12.2123 2.9228 12.2789 2.88217C12.3455 2.84154 12.422 2.82004 12.5 2.82004C12.578 2.82004 12.6545 2.84154 12.7211 2.88217C12.7877 2.9228 12.8418 2.98099 12.8775 3.05036L15.8618 8.84953L22.2994 9.89572C22.3763 9.90832 22.4483 9.94185 22.5075 9.99264C22.5667 10.0434 22.6107 10.1095 22.6348 10.1837C22.6589 10.2578 22.6621 10.3372 22.6441 10.4131C22.6261 10.4889 22.5875 10.5584 22.5327 10.6138L22.5327 10.6138Z" fill="#D6C4C4"/>
</svg>
