<svg width="24" height="23" viewBox="0 0 24 23" fill="none" xmlns="http://www.w3.org/2000/svg">
<path d="M22.6111 10.6526C22.8692 10.4603 23.0606 10.1921 23.1586 9.88554C23.2565 9.57896 23.2561 9.24942 23.1573 8.94311C23.0585 8.6368 22.8664 8.36908 22.6077 8.17751C22.3491 7.98593 22.0371 7.88009 21.7152 7.87483L15.4652 7.63872C15.4345 7.6366 15.4051 7.62564 15.3804 7.60716C15.3558 7.58868 15.337 7.56346 15.3264 7.53456L13.1666 1.70122C13.0581 1.40445 12.861 1.14818 12.6021 0.967123C12.3431 0.786067 12.0347 0.688965 11.7187 0.688965C11.4027 0.688965 11.0944 0.786067 10.8354 0.967123C10.5764 1.14818 10.3793 1.40445 10.2708 1.70122L8.11803 7.55539C8.10739 7.5843 8.08861 7.60951 8.06397 7.62799C8.03933 7.64647 8.00987 7.65744 7.97914 7.65956L1.72914 7.89567C1.40734 7.90092 1.09525 8.00676 0.836633 8.19834C0.578018 8.38992 0.385846 8.65763 0.287061 8.96394C0.188276 9.27025 0.187833 9.5998 0.285794 9.90637C0.383754 10.2129 0.575206 10.4812 0.833304 10.6734L5.73608 14.5276C5.76062 14.5469 5.77896 14.573 5.78883 14.6026C5.79871 14.6322 5.79968 14.6641 5.79164 14.6943L4.10414 20.6734C4.01669 20.9779 4.02516 21.3019 4.1284 21.6014C4.23164 21.9009 4.42463 22.1613 4.68112 22.3472C4.9376 22.5332 5.24514 22.6356 5.56188 22.6405C5.87863 22.6454 6.1892 22.5527 6.45136 22.3748L11.6319 18.9026C11.6574 18.885 11.6877 18.8756 11.7187 18.8756C11.7497 18.8756 11.78 18.885 11.8055 18.9026L16.9861 22.3748C17.2447 22.5587 17.5542 22.6576 17.8715 22.6576C18.1888 22.6576 18.4983 22.5587 18.7569 22.3748C19.0135 22.1907 19.2066 21.9315 19.3099 21.6331C19.4131 21.3346 19.4213 21.0115 19.3333 20.7082L17.6319 14.7082C17.6229 14.678 17.6234 14.6459 17.6333 14.6161C17.6433 14.5862 17.6622 14.5602 17.6875 14.5415L22.6111 10.6526Z" fill="#FFCE1E"/>
</svg>
